<?xml version="1.0"?>
<svg xmlns="http://www.w3.org/2000/svg" viewBox="0 0 512 512" fill="none">
  <defs>
    <linearGradient id="paper" x1="0" y1="0" x2="0" y2="1">
      <stop offset="0" stop-color="#FDFAF4"></stop>
      <stop offset="1" stop-color="#F4ECDD"></stop>
    </linearGradient>
  </defs>

  
  <rect width="512" height="512" rx="96" fill="url(#paper)"></rect>

  
  <rect x="132" y="96" width="248" height="324" rx="20" fill="#C8553D"></rect>
  
  <rect x="156" y="120" width="200" height="276" rx="10" fill="#FBF6EE"></rect>

  
  
  <rect x="180" y="156" width="28" height="28" rx="6" fill="#7C8F5B"></rect>
  <path d="M186 170 l6 6 l10 -12" stroke="#FBF6EE" stroke-width="4.5" fill="none" stroke-linecap="round" stroke-linejoin="round"></path>
  <line x1="222" y1="170" x2="320" y2="170" stroke="#B0A08D" stroke-width="7" stroke-linecap="round"></line>
  
  <rect x="180" y="210" width="28" height="28" rx="6" fill="none" stroke="#D9CAAE" stroke-width="4"></rect>
  <line x1="222" y1="224" x2="330" y2="224" stroke="#463528" stroke-width="7" stroke-linecap="round"></line>
  
  <rect x="180" y="264" width="28" height="28" rx="6" fill="none" stroke="#D9CAAE" stroke-width="4"></rect>
  <line x1="222" y1="278" x2="312" y2="278" stroke="#463528" stroke-width="7" stroke-linecap="round"></line>
  
  <rect x="180" y="318" width="28" height="28" rx="6" fill="none" stroke="#D9CAAE" stroke-width="4"></rect>
  <line x1="222" y1="332" x2="326" y2="332" stroke="#463528" stroke-width="7" stroke-linecap="round"></line>

  
  <g transform="translate(348 118) rotate(25)">
    <path d="M 0 0 Q 18 24 36 48 Q 50 70 56 96" stroke="#5A6A3F" stroke-width="3" fill="none" stroke-linecap="round"></path>
    <ellipse cx="6" cy="14" rx="8" ry="4" fill="#7C8F5B" transform="rotate(-30 6 14)"></ellipse>
    <ellipse cx="22" cy="36" rx="8" ry="4" fill="#7C8F5B" transform="rotate(-25 22 36)"></ellipse>
    <ellipse cx="38" cy="62" rx="8" ry="4" fill="#7C8F5B" transform="rotate(-20 38 62)"></ellipse>
    <ellipse cx="50" cy="86" rx="7" ry="3.5" fill="#7C8F5B" transform="rotate(-10 50 86)"></ellipse>
  </g>
</svg>